<svg version="1.1" xmlns="http://www.w3.org/2000/svg" style="display: block;" viewBox="4.722486972808838 5.295576572418213 2022.7269287109375 2039.8988037109375" width="548" height="552" preserveAspectRatio="none">
<defs>
	<linearGradient id="Gradient1" gradientUnits="userSpaceOnUse" x1="835.608" y1="749.777" x2="832.238" y2="834.87">
		<stop class="stop0" offset="0" stop-opacity="1" stop-color="rgb(136,187,77)"/>
		<stop class="stop1" offset="1" stop-opacity="1" stop-color="rgb(188,240,111)"/>
	</linearGradient>
	<linearGradient id="Gradient2" gradientUnits="userSpaceOnUse" x1="1373.77" y1="536.086" x2="1305.2" y2="588.402">
		<stop class="stop0" offset="0" stop-opacity="1" stop-color="rgb(178,182,154)"/>
		<stop class="stop1" offset="1" stop-opacity="1" stop-color="rgb(240,243,218)"/>
	</linearGradient>
</defs>
<path transform="translate(0,0)" fill="rgb(0,0,0)" d="M 460.654 6.42369 C 463.569 6.19684 467.88 6.09095 470.833 6.07676 C 553.314 5.68053 636.003 5.85411 718.475 5.90108 L 1175.96 5.84288 L 1439.9 5.78986 C 1517.16 5.81506 1602.35 1.4439 1677.74 18.2383 C 1878.38 62.9353 2025.59 243.482 2026.38 449.491 C 2026.74 543.905 2027.12 638.746 2027.08 733.358 L 2027.19 1208.75 L 2026.92 1461.43 C 2026.95 1541.54 2031.3 1624.32 2014.54 1702.67 C 1997.92 1779.65 1960.26 1850.51 1905.77 1907.37 C 1815.96 2001.09 1701.91 2042.15 1573.92 2045.01 L 762.27 2045.02 L 549.98 2044.97 C 491.947 2045.05 434.858 2046.95 377.306 2038.09 C 297.114 2025.75 218.442 1988.87 157.136 1936.06 C 54.5137 1847.66 10.0224 1731.9 5.22607 1598.76 C 4.35475 1574.57 4.8796 1547.86 4.87531 1523.18 L 4.87867 1380.94 L 4.89039 945.689 L 4.87996 610.81 L 4.86805 514.532 C 4.88045 462.671 4.30603 424.683 14.3364 372.714 C 29.5824 291.378 67.0002 215.833 122.462 154.416 C 189.826 79.6026 280.442 29.8507 379.615 13.5616 C 406.805 9.09585 433.217 7.84071 460.654 6.42369 z"/>
<path transform="translate(0,0)" fill="rgb(31,31,31)" d="M 1161.34 261.5 C 1194.67 260.206 1233.89 261.017 1267.5 260.997 L 1458.76 260.918 L 1577.75 260.854 C 1600.03 260.847 1628.25 259.463 1650 262.258 C 1726.58 272.096 1787.99 338.525 1789.49 416.198 C 1789.93 439.263 1789.92 462.388 1789.9 485.583 L 1789.81 606.212 L 1789.68 696.459 C 1789.58 714.11 1789.87 737.928 1787.82 754.977 C 1785.36 775.598 1778.93 795.548 1768.9 813.729 C 1748.87 850.14 1709.56 880.747 1669.77 892.152 C 1670.12 900.658 1669.29 911.679 1669.16 920.497 L 1668.78 976.299 L 1668.7 1157.63 L 1668.69 1314.71 C 1668.61 1349.59 1669.98 1395.58 1663.6 1428.86 C 1646.82 1516.12 1584.61 1587.71 1500.55 1616.51 C 1483.82 1622.28 1466.5 1626.12 1448.9 1627.98 C 1426.38 1630.26 1401.85 1630.02 1379.18 1630.05 L 1292.7 1630.22 L 1008.04 1630.81 C 984.211 1630.79 907.547 1627.99 890.861 1633.31 C 878.847 1637.15 867.821 1645.22 857.488 1652.25 L 718.777 1739.98 C 697.942 1752.95 677.809 1766.8 656.009 1778.19 C 629.873 1791.85 595.919 1786.99 574.049 1767.41 C 545.983 1742.27 551.198 1700.51 550.88 1666.49 C 550.645 1641.4 551.244 1616.52 550.134 1591.33 C 500.131 1574.22 462.932 1558.36 425.199 1518.63 C 395.118 1486.96 374.468 1443.36 367.975 1400.29 C 363.352 1369.63 364.781 1327.5 364.777 1295.72 L 364.809 1123.92 L 364.755 775.566 C 364.815 717.665 364.414 658.844 365.16 600.985 C 365.904 543.264 397.553 482.172 439.84 443.177 C 470.21 415.109 507.462 395.572 547.819 386.547 C 576.849 380.2 614.892 381.463 645.021 381.585 L 738.209 381.588 C 809.937 381.177 881.666 381.191 953.394 381.632 C 971.005 381.852 989.356 381.19 1006.78 381.835 C 1029.9 308.45 1083.5 264.603 1161.34 261.5 z"/>
<path transform="translate(0,0)" fill="rgb(182,237,106)" d="M 463.181 520.814 C 478.143 493.223 519.358 465.247 549.365 456.901 C 583.52 447.4 627.674 450.422 663.832 450.56 L 781.56 450.886 L 923.507 450.901 C 948.148 450.961 977.054 450.399 1001.49 451.675 C 1002.09 527.79 1002.13 603.907 1001.6 680.022 C 995.036 680.083 986.04 680.418 979.687 679.996 L 771.508 680.285 C 745.573 680.339 681.426 678.893 659.871 683.633 C 637.773 688.523 617.553 699.681 601.635 715.771 C 560.957 756.929 566.037 801.198 565.944 854.027 L 565.853 959.425 C 565.848 1074.93 565.777 1190.51 565.861 1306.03 C 565.892 1347.27 574.797 1384.99 605.393 1414.89 C 624.747 1433.72 649.315 1446.3 675.906 1450.98 C 694.579 1454.19 733.833 1452.94 754.181 1452.89 L 877.543 1452.95 L 1166.26 1453.05 C 1216.24 1453.07 1266.33 1453.18 1316.25 1453.11 C 1353.61 1453.06 1387.87 1439.41 1413.84 1412.15 C 1456.9 1366.94 1452.28 1322.49 1452.64 1265.27 C 1471.75 1248.71 1485.75 1229.3 1486.57 1203.37 C 1487.07 1175.97 1487.42 1148 1486.9 1120.6 C 1486.35 1091.4 1489.04 1059.61 1484.5 1030.88 C 1481.5 1011.9 1466.7 992.058 1451.54 980.952 L 1451.99 960.49 C 1451.08 938.291 1451.46 917.709 1450 895.081 C 1498.5 895.166 1549.75 894.437 1598.02 896.003 C 1599.11 949.018 1599.44 1002.05 1599.02 1055.07 L 1598.77 1273 L 1598.73 1352.42 C 1598.73 1361.26 1598.93 1395.41 1596.98 1402.45 C 1596.98 1402.71 1596.98 1402.97 1596.98 1403.24 C 1592.54 1446.06 1570.69 1486.51 1539.56 1514.62 C 1515.76 1536.03 1486.66 1550.67 1455.29 1557.01 C 1434.31 1561.08 1409.46 1560.16 1387.76 1560.16 L 1308.06 1560.16 L 985.455 1560.22 C 954.289 1560.21 923.094 1559.87 891.943 1560.51 C 875.966 1560.84 863.464 1566.7 850.028 1574.83 C 788.116 1612.3 727.683 1652.23 665.914 1689.91 C 657.609 1694.98 632.513 1714.01 624.153 1713.58 C 621.621 1710.94 622.016 1702.59 621.96 1698.79 C 621.267 1651.27 622.738 1601.82 621.171 1554.51 C 617.354 1520.49 568.809 1524.48 545.246 1516.08 C 487.557 1495.52 446.92 1448.74 436.431 1388.32 C 432.572 1366.1 433.711 1341.84 433.804 1318.81 L 433.999 1236.15 L 434.179 964.53 L 434.04 720.429 L 433.943 646.65 C 433.901 603.189 433.351 556.52 463.181 520.814 z"/>
<path transform="translate(0,0)" fill="rgb(120,172,64)" d="M 463.181 520.814 C 478.143 493.223 519.358 465.247 549.365 456.901 C 583.52 447.4 627.674 450.422 663.832 450.56 L 781.56 450.886 L 923.507 450.901 C 948.148 450.961 977.054 450.399 1001.49 451.675 C 1002.09 527.79 1002.13 603.907 1001.6 680.022 C 995.036 680.083 986.04 680.418 979.687 679.996 C 984.96 678.739 992.252 677.909 997.799 677.032 C 998.611 674.18 997.625 643.891 997.656 638.218 L 998.51 466.838 C 985.905 459.39 974.316 460.389 961.179 456.426 C 951.766 453.587 913.945 453.665 902.001 453.526 C 829.543 452.682 757.015 454.116 684.549 453.642 C 670.523 453.551 596.344 450.177 587.323 452.794 C 574.565 456.494 561.172 456.55 548.283 459.667 C 536.114 462.61 505.158 478.79 496.041 487.817 C 492.79 491.036 489.942 494.685 486.66 497.865 C 484.073 500.371 480.673 502.101 478.285 504.752 C 473.448 510.12 470.166 516.188 463.962 520.314 C 463.704 520.485 463.441 520.647 463.181 520.814 z"/>
<path transform="translate(0,0)" fill="rgb(120,172,64)" d="M 1450 895.081 C 1498.5 895.166 1549.75 894.437 1598.02 896.003 C 1599.11 949.018 1599.44 1002.05 1599.02 1055.07 L 1598.77 1273 L 1598.73 1352.42 C 1598.73 1361.26 1598.93 1395.41 1596.98 1402.45 C 1595.69 1389.32 1596.9 1369.09 1596.47 1355.28 C 1595.12 1311.73 1597.45 1268.09 1597.53 1224.69 L 1596.81 1049.42 C 1596.64 1033.87 1596.14 938.485 1594.23 931.493 C 1581.41 884.695 1497.47 901.273 1456.68 906.239 C 1452.21 911.938 1453.56 948.189 1452.13 959.455 L 1451.99 960.49 C 1451.08 938.291 1451.46 917.709 1450 895.081 z"/>
<path transform="translate(0,0)" fill="rgb(239,244,226)" d="M 1083.45 378.323 C 1094.66 356.721 1115.21 341.746 1138.1 334.459 C 1158.12 328.087 1232.25 331.02 1258.48 331.017 L 1432.23 331.008 L 1561.79 331.009 C 1596.06 331.017 1641.55 326.551 1671.77 342.66 C 1693.52 354.26 1709.71 374.086 1716.74 397.711 C 1722.44 417.015 1720.02 475.552 1719.98 498.442 L 1719.7 637.018 L 1719.69 703.588 C 1719.7 714.679 1720.43 742.341 1717.93 752.143 C 1712.43 784.71 1686.65 811.924 1655.53 821.701 C 1635.45 828.013 1554.31 824.925 1526.1 824.936 L 1322.93 825.112 C 1311.34 825.117 1260.57 823.547 1253.23 826.836 C 1229.51 837.479 1198.95 877.126 1177.04 893.006 L 1175.93 893.796 C 1175.94 881.776 1177.55 851.828 1174.77 841.584 C 1169.73 822.969 1139.9 824.343 1121.04 814.442 C 1098.91 802.833 1082.47 782.709 1075.5 758.71 C 1073.65 752.675 1072.55 746.436 1072.22 740.134 C 1071.1 719.681 1071.81 693.529 1071.81 672.617 L 1071.85 551.074 L 1071.81 463.22 C 1071.81 432.688 1068.35 406.058 1083.45 378.323 z"/>
<path transform="translate(0,0)" fill="rgb(199,204,179)" d="M 1083.45 378.323 C 1094.66 356.721 1115.21 341.746 1138.1 334.459 C 1158.12 328.087 1232.25 331.02 1258.48 331.017 L 1432.23 331.008 L 1561.79 331.009 C 1596.06 331.017 1641.55 326.551 1671.77 342.66 C 1693.52 354.26 1709.71 374.086 1716.74 397.711 C 1722.44 417.015 1720.02 475.552 1719.98 498.442 L 1719.7 637.018 L 1719.69 703.588 C 1719.7 714.679 1720.43 742.341 1717.93 752.143 C 1717.18 743.535 1717.46 731.013 1717.22 722.12 C 1716.46 693.483 1717.51 664.906 1717.59 636.165 L 1717.49 422.214 L 1715.8 424.137 C 1715.26 421.666 1715.4 421.87 1715.79 419.382 C 1717.54 406.996 1714.13 394.434 1706.36 384.627 C 1696.95 372.94 1654.82 348.753 1640.28 347.032 C 1637.45 346.697 1634.28 346.271 1631.61 345.244 C 1614.04 338.478 1434.38 340.042 1405.43 340.601 C 1396.42 340.775 1387.49 342.897 1378.51 342.754 C 1372.69 342.66 1366.91 341.67 1361.07 341.551 C 1347.56 341.275 1334.04 341.726 1320.53 341.372 C 1294.64 340.694 1268.58 339.402 1242.7 339.535 C 1231.76 339.592 1220.82 340.353 1209.88 340.473 C 1195.94 340.626 1180.31 338.454 1166.61 340.042 C 1156.59 341.202 1144.24 341.263 1134.88 344.922 C 1126.69 348.125 1117.83 349.566 1109.76 353.031 C 1099.29 357.526 1092.56 370.219 1084.15 377.714 C 1083.92 377.92 1083.68 378.12 1083.45 378.323 z"/>
<path transform="translate(0,0)" fill="rgb(31,31,31)" d="M 1277.24 696.226 C 1270.85 711.659 1264.7 743.872 1250.12 748.337 C 1231.13 752.36 1202.28 753.244 1183.66 748.298 C 1178.9 747.035 1170.91 735.903 1171.24 733.026 C 1173.68 711.411 1193.64 664.697 1200.48 646.578 L 1251.38 511.714 L 1276.7 444.126 C 1281.42 431.51 1291.23 396.038 1307.15 395.246 C 1325.7 394.323 1374.4 390.49 1389.32 398.848 C 1401.65 405.756 1422.07 470.578 1427.39 485.003 L 1469.35 596.239 L 1506.17 691.286 C 1514.23 712.411 1529.97 736.182 1502.85 749.659 C 1494.38 757.044 1475.85 752.232 1464.9 753.479 C 1460.13 754.022 1452.13 753.626 1447.24 753.102 C 1417.8 749.959 1422.33 716.187 1406.97 698.429 C 1398.97 689.031 1386.15 684.351 1374.17 683.077 C 1351.75 681.21 1330.21 683.212 1307.68 680.244 C 1304.24 680.247 1289.16 677.982 1287.13 679.209 C 1283.13 681.619 1283.59 692.056 1277.24 696.226 z"/>
<path transform="translate(0,0)" fill="rgb(199,204,179)" d="M 1286.8 673.423 C 1299.14 671.42 1395.62 670.019 1401.4 674.062 C 1406.09 677.347 1408.22 684.936 1410.12 690.053 C 1416.4 706.946 1423.95 742.769 1441.82 749.329 C 1449.72 752.229 1459.06 751.304 1467.33 751.181 C 1477.64 751.029 1488.52 751.457 1498.72 750.237 C 1500.1 750.072 1501.48 749.879 1502.85 749.659 C 1494.38 757.044 1475.85 752.232 1464.9 753.479 C 1460.13 754.022 1452.13 753.626 1447.24 753.102 C 1417.8 749.959 1422.33 716.187 1406.97 698.429 C 1398.97 689.031 1386.15 684.351 1374.17 683.077 C 1351.75 681.21 1330.21 683.212 1307.68 680.244 C 1304.24 680.247 1289.16 677.982 1287.13 679.209 C 1283.13 681.619 1283.59 692.056 1277.24 696.226 C 1279.73 687.711 1282.17 681.121 1286.8 673.423 z"/>
<path transform="translate(0,0)" fill="url(#Gradient2)" d="M 1343.32 478.648 C 1345.59 487.232 1348.04 495.768 1350.66 504.252 C 1355.03 515.263 1380.06 588.303 1379.68 596.279 C 1372.23 602.117 1348.74 599.161 1338.71 599.611 C 1331.35 599.942 1313.65 601.319 1308.82 596.263 C 1308.27 583.602 1319.34 558.41 1322.96 545.007 C 1324.86 537.961 1330.37 519.491 1333.38 513.01 C 1335.57 502.549 1340.62 490.718 1343.32 478.648 z"/>
<path transform="translate(0,0)" fill="rgb(199,204,179)" d="M 1343.32 478.648 C 1345.59 487.232 1348.04 495.768 1350.66 504.252 C 1346.32 500.527 1348.08 500.976 1343.13 500.43 C 1337.14 502.982 1338.36 508.657 1333.38 513.01 C 1335.57 502.549 1340.62 490.718 1343.32 478.648 z"/>
<path transform="translate(0,0)" fill="rgb(31,31,31)" d="M 1559.51 510.364 C 1579.52 509.589 1623.43 503.293 1623.59 532.625 C 1623.93 597.043 1623.35 661.527 1622.97 725.947 C 1622.91 737.222 1615.38 744.737 1605.86 749.337 C 1596.92 751.016 1587.8 750.811 1578.81 751.05 C 1559.02 751.606 1543.78 747.878 1543.34 724.964 C 1542.09 660.522 1542.49 595.858 1542.9 531.401 C 1542.96 520.864 1549.76 513.708 1559.51 510.364 z"/>
<path transform="translate(0,0)" fill="rgb(31,31,31)" d="M 1563.04 400.326 C 1599.21 398.937 1625.94 393.658 1623.47 441.4 C 1622.47 460.892 1625.71 476.78 1602.59 485.392 C 1590.34 486.141 1565.45 488.314 1555.26 482.253 C 1550 479.406 1542.8 469.1 1542.64 463.02 C 1542.07 441.359 1534.57 405.9 1563.04 400.326 z"/>
<path transform="translate(0,0)" fill="rgb(0,0,0)" d="M 637.369 884.648 C 668.687 907.397 745.362 901.882 784.97 901.969 L 981.631 902.193 C 1010.9 901.925 1040.17 902.07 1069.44 902.627 C 1082.54 902.925 1098.67 903.001 1111.51 904.357 L 1111.53 924.769 C 1079.09 935.472 1043.34 953.095 1018.87 977.222 C 978.057 1017.47 955.811 1066.7 955.323 1124.13 C 954.877 1177.19 975.523 1228.25 1012.72 1266.09 C 1026.39 1279.83 1042.11 1291.37 1059.31 1300.3 C 1108.1 1326.26 1140.36 1323.58 1193.45 1323.66 L 1284.75 1323.87 C 1307.64 1323.88 1330.14 1323.65 1353.02 1324.77 C 1360.78 1325.15 1368.35 1324.38 1376.47 1324.91 C 1383.93 1333.08 1367.53 1359.17 1360.59 1366.09 C 1344.72 1381.91 1325.79 1382.19 1305.03 1382.26 L 877.089 1382.06 L 753.76 1382.22 C 739.465 1382.25 724.988 1382.08 710.715 1382.17 C 690.368 1382.3 673.539 1380.86 658.279 1365.44 C 648.645 1355.65 642.217 1343.17 639.851 1329.64 C 637.384 1315.59 637.809 1295.67 637.556 1281.06 C 637.042 1251.4 637.676 1221.58 637.614 1191.91 L 637.369 884.648 z"/>
<path transform="translate(0,0)" fill="rgb(239,244,226)" d="M 1065.04 1028.81 C 1079.99 1011.79 1111.64 997.945 1133.8 995.543 C 1152.13 993.555 1174.4 994.119 1193.17 994.14 L 1284.61 994.252 L 1362.09 994.383 C 1385.52 994.433 1417.84 991.196 1437 1006.3 C 1462.41 1025.9 1458.25 1054.29 1458.48 1083.05 C 1458.8 1122.32 1459.09 1161.82 1457.69 1201.04 C 1457.44 1206.54 1455.95 1213.19 1453.96 1218.25 L 1453.03 1220.01 C 1449.02 1227.81 1446.05 1232.48 1439.42 1238.51 C 1431.56 1245.61 1421.77 1250.21 1411.29 1251.75 C 1399.95 1253.53 1381.34 1252.91 1369.38 1252.89 L 1302.58 1252.81 L 1201.69 1252.78 C 1183.45 1252.8 1161.01 1253.41 1143.08 1252.38 C 1109.99 1250.81 1078.95 1235.89 1057.04 1211.03 C 1033.93 1184.38 1022.52 1149.54 1025.4 1114.38 C 1027.57 1084.17 1041.75 1048.83 1065.04 1028.81 z"/>
<path transform="translate(0,0)" fill="rgb(199,204,179)" d="M 1065.04 1028.81 C 1079.99 1011.79 1111.64 997.945 1133.8 995.543 C 1152.13 993.555 1174.4 994.119 1193.17 994.14 L 1284.61 994.252 L 1362.09 994.383 C 1385.52 994.433 1417.84 991.196 1437 1006.3 C 1462.41 1025.9 1458.25 1054.29 1458.48 1083.05 C 1458.8 1122.32 1459.09 1161.82 1457.69 1201.04 C 1457.44 1206.54 1455.95 1213.19 1453.96 1218.25 C 1452.98 1206.04 1456.31 1190.37 1456.34 1177.68 C 1456.42 1139.91 1457.12 1101.97 1456.13 1064.21 C 1456.02 1059.9 1453.87 1050.75 1452.77 1046.43 C 1449.59 1033.92 1449.94 1022.37 1440.85 1012.5 C 1413.47 1004.55 1374.83 1006.28 1345.92 1006.36 C 1318.53 1006.44 1283.31 1003.01 1256.5 1005.58 C 1224.17 1008.68 1197.97 1006.12 1165.79 1006.46 C 1139.97 1006.73 1115.9 1014.03 1089.11 1013.49 C 1083.17 1017.2 1069.9 1027.53 1065.04 1028.81 z"/>
<path transform="translate(0,0)" fill="rgb(31,31,31)" d="M 1095.82 1118.83 C 1098.03 1083.61 1126.24 1055.63 1161.47 1053.71 C 1196.7 1051.79 1227.79 1076.54 1233.81 1111.31 C 1239.83 1146.08 1218.87 1179.84 1185.04 1189.88 C 1180.88 1196.32 1135.09 1201.51 1128.05 1191.92 C 1110.26 1167.67 1086.89 1152.22 1095.82 1118.83 z"/>
<path transform="translate(0,0)" fill="rgb(199,204,179)" d="M 1185.04 1189.88 C 1180.88 1196.32 1135.09 1201.51 1128.05 1191.92 C 1110.26 1167.67 1086.89 1152.22 1095.82 1118.83 C 1094.4 1141.5 1104.14 1163.45 1121.92 1177.6 C 1139.69 1191.75 1163.26 1196.34 1185.04 1189.88 z"/>
<path transform="translate(0,0)" fill="url(#Gradient1)" d="M 645.65 795.91 C 642.028 772.516 656.099 753.601 679.515 750.596 C 691.834 749.016 705.327 749.545 717.785 749.549 L 777.119 749.583 C 851.238 749.643 928.954 750.786 1002.78 749.455 C 1007.82 784.046 1014.95 801.474 1034.42 830.819 C 1022.09 831.094 1008.04 831.745 995.886 831.07 C 932.827 832.843 866.201 831.81 802.843 831.826 L 730.7 831.947 C 694.472 832.01 659.614 838.606 645.65 795.91 z"/>
<path transform="translate(0,0)" fill="rgb(120,172,64)" d="M 645.65 795.91 C 642.028 772.516 656.099 753.601 679.515 750.596 C 691.834 749.016 705.327 749.545 717.785 749.549 L 777.119 749.583 C 851.238 749.643 928.954 750.786 1002.78 749.455 C 1007.82 784.046 1014.95 801.474 1034.42 830.819 C 1022.09 831.094 1008.04 831.745 995.886 831.07 C 1004.98 828.336 1013.56 831.204 1018.77 827.111 C 1022.31 816.915 1008.65 790.508 1005.89 778.856 C 1004.92 774.76 1002.72 764.692 1001.72 761.272 C 984.437 749.012 747.359 754.182 711.326 756.95 C 696.532 758.086 668.675 759.37 655.181 766.718 C 649.732 769.685 646.93 789.479 645.65 795.91 z"/>
<path transform="translate(0,0)" fill="rgb(0,0,0)" d="M 1293.7 898.542 C 1316.78 897.316 1344.53 896.001 1367.22 899.788 C 1372.67 900.697 1380.95 913.558 1376.68 920.564 C 1369.4 924.965 1345.95 923.521 1335.75 923.589 C 1309.3 924.148 1279.18 923.101 1252.59 922.655 C 1265.74 904.654 1270.91 899.053 1293.7 898.542 z"/>
</svg>